<?xml version="1.0" encoding="UTF-8"?><svg xmlns="http://www.w3.org/2000/svg" viewBox="0 0 308.532 340.827" x="0px" y="0px" width="309px" height="341px" version="1.1" xmlns:xlink="http://www.w3.org/1999/xlink"><g id="Слой_2" data-name="Слой 2"><g id="Слой_3" data-name="Слой 3"><rect x="44.761" y="168.776" width="23.663" height="19.955" transform="translate(88.14 -6.071) rotate(27.254)" fill="none" stroke="#010101" stroke-miterlimit="10" stroke-width="3"/><polygon points="69.487 239.065 0 203.271 26.646 166.386 84.048 195.955 69.487 239.065" fill="#fdbc42"/><circle cx="45.045" cy="201.169" r="12.843" fill="#dbd8d3"/><polygon points="53.889 204.038 47.066 200.523 50.581 193.699 47.914 192.325 44.399 199.149 37.575 195.634 36.201 198.301 43.025 201.816 39.51 208.639 42.177 210.013 45.692 203.19 52.516 206.705 53.889 204.038" fill="#e33b2b"/><path d="M64.194,155.455l5.956,4.522c5.583-4.322,35.732-39.512,32.1-58.446l-16.811,4.593L64.657,155.269Z" fill="#dbd8d3"/><polygon points="91.501 229.437 186.894 229.437 154.535 165.224 91.501 229.437" fill="#8e231d"/><polygon points="185.756 28.258 178.746 48.255 194.71 49.88 194.193 26.828 185.756 28.258" fill="#939498"/><polygon points="201.892 12.573 209.085 28.427 202.786 28.392 201.892 12.573" fill="#dbd8d3"/><path d="M205.032,36.228a7.658,7.658,0,0,1-6.066-4.324c2.757,1.457,4.735,1.485,5.952,1.224-.425-4.053-.9-8.8-1.291-13.37C202.648,8.4,196.4,6.043,191.386,6.026c-7.874-.027-11.175,2.766-9.932,13.279,1.071,9.065,7.267,10.576,7.267,10.576a22.812,22.812,0,0,0,17.35,13.73S205.537,40.936,205.032,36.228Z" fill="#dbd8d3"/><path d="M193.257,14.011s13.435-.272,13.3-14.011c0,0-4.016,3.253-11.957,3.906-8.274.681-14.635,2.1-16.6,9.662-1.342,5.182,2.3,11.3,6.322,13.93C184.328,27.5,193.074,26.511,193.257,14.011Z" fill="#010101"/><circle cx="185.958" cy="27.218" r="5.189" fill="#dbd8d3"/><rect x="197.174" y="19.289" width="3.775" height="1.208" fill="#010101"/><path d="M286.94,67.219c-6.948,1.253-51.813,18.375-62.42,35.99l14.49,9.574,50.626-38.851Z" fill="#dbd8d3"/><path d="M159.589,60.311S150.444,81.259,169.3,96.79c29.5,24.3,69.7,15.994,69.709,15.993Z" fill="#010101"/><circle cx="294.642" cy="66.047" r="10.493" fill="#dbd8d3"/><polygon points="263.02 330.513 239.56 330.513 129.84 170.201 164.849 146.707 263.02 330.513" fill="#010101"/><polygon points="239.56 330.513 239.56 340.827 290.897 340.827 263.02 330.513 239.56 330.513" fill="#8e231d"/><polygon points="170.651 51.381 176.755 43.74 198.218 48.364 191.685 61.898 170.651 51.381" fill="#e33b2b"/><path d="M193.4,58.256s-16.1-14.974-38.958-1.178c-36.912,22.274-26.271,86.764-26.271,86.764l36.674,2.865Z" fill="#8e231d"/><circle cx="63.486" cy="165.134" r="10.493" fill="#dbd8d3"/><path d="M177.263,81.036s-9.714-20.69-33.825-16.76c-37.725,6.149-58,41.844-58,41.848Z" fill="#e33b2b"/><path d="M164.849,146.707,131.341,265.024l-31.413,65.59H80.512s4.787-56.727,26.09-78.031c0,0-7.442-70.921,26.494-105.876Z" fill="#e33b2b"/><polygon points="80.512 330.614 80.512 340.827 127.568 340.827 99.928 330.614 80.512 330.614" fill="#8e231d"/><path d="M160.265,153.078s10.652,26.629,27.617,36.754l-23.033-43.125Z" fill="#8e231d"/><path d="M164.849,146.707l-13.321,47.039a49.059,49.059,0,0,1-47.2,35.691H87.815s24.756-57.481,40.36-85.595h18.809Z" fill="#8e231d"/><line x1="128.212" y1="162.891" x2="150.183" y2="162.733" fill="none" stroke="#010101" stroke-miterlimit="10"/><path d="M102.25,101.531l-16.811,4.593-16.3,38.539,10.444,5.152C90.2,136.877,104.845,115.058,102.25,101.531Z" fill="#e33b2b"/><rect x="306.262" y="59.693" width="2.27" height="8.292" fill="#010101"/><rect x="303.991" y="61.378" width="2.27" height="4.989" fill="#010101"/><circle cx="185.677" cy="27.667" r="2.663" fill="#010101"/><path d="M208.792,48.986S217.9,52.9,229.97,75.605c10.734,20.193,9.246,39.457,30.748,39.453,29.73-.005,29.794-48.611,43.681-51.215" fill="none" stroke="#010101" stroke-miterlimit="10" stroke-width="2"/><path d="M211.088,46.105c-.4-2.36-2.909-5.25-5.773-7.868l.454,3.229c1.782,1.824,3.115,3.593,3.347,4.972a1.366,1.366,0,0,1-.221,1.146,2.676,2.676,0,0,1-2.429,1.213c-5.727-.373-15.426-15.131-18.679-20.786l-1.734,1c1.252,2.176,12.455,21.273,20.283,21.784.11.007.219.011.326.011a4.711,4.711,0,0,0,3.823-2.007A3.393,3.393,0,0,0,211.088,46.105Z" fill="#010101"/></g></g></svg>