<?xml version="1.0" encoding="UTF-8"?><svg version="1.1" id="Layer_1" xmlns="http://www.w3.org/2000/svg" xmlns:xlink="http://www.w3.org/1999/xlink" x="0px" y="0px" viewBox="0 0 147.145 296.473" style="enable-background:new 0 0 147.145 296.473;" xml:space="preserve" width="148px" height="297px">
<title>doctor_with_X-ray_image_and_patient-card</title>
<g>
	<g>
		<g>
			<path style="fill:#607D8B;" d="M89.954,19.289c-1.465-3.775-2.53-6.252-2.53-6.252l21.228-8.4L120.364,0
				c1.164,1.897,2.223,3.856,3.173,5.868L89.954,19.289z"/>
			<path style="fill:#90A4AE;" d="M112.082,65.566c-0.075-0.086-11-12.393-17.35-32.734c-1.567-5.018-3.36-9.889-4.778-13.543
				c3.284-3.1,4.859-3.381,7.132-5.391c2.4-2.121,0.448-4.862,0.448-4.862l11.118-4.4c0,0,0.73,2.4,2.779,2.708
				c4.171,0.63,5.789-1.085,12.106-1.475c1.6,3.129,2.742,6.917,7.776,17.917c4.459,9.513,9.758,18.61,15.832,27.182L112.082,65.566
				z"/>
			<path style="fill:#607D8B;" d="M104.992,47.492c-1.663-4.619-2.825-9.404-3.466-14.271c-0.75-6.981-1.43-15.43,0.216-15.977
				s4.412,1.908,5.211,4.052c0.973,2.603,2.213,5.099,3.7,7.447c1.348,1.962,2.4,6.433,2.761,8.24s3.175,5.211,4.818,10.449
				s-4.1,8.876-5.47,9.332S107.069,53.068,104.992,47.492z"/>
			<path style="fill:#607D8B;" d="M115.385,29.949c-1.867-3.846-3.661-8.185-4.192-11.2s-0.76-4.774,0.274-5.209
				s4.884-0.2,11.992,9.315c7.108,9.515,11.453,15.769,12.8,19.832s0.242,4.938-0.792,5.372s-9.6,1.485-11.555-5.724
				C121.892,34.874,116.878,33.026,115.385,29.949z"/>
			<path style="opacity:0.7;fill:#90A4AE;enable-background:new    ;" d="M106.85,21.053l-6.11-0.07
				c0.018-0.666,0.075-1.331,0.17-1.99l4.57,0.04C106.046,19.626,106.509,20.308,106.85,21.053z"/>
			<path style="opacity:0.7;fill:#90A4AE;enable-background:new    ;" d="M116.76,15.563l-5.41,3.99c-0.06-0.28-0.12-0.55-0.16-0.81
				c-0.09-0.5-0.17-0.96-0.23-1.38l4.06-2.99C115.627,14.729,116.208,15.126,116.76,15.563z"/>
			<path style="fill:#6E8996;" d="M108.2,24.253c-2.85,0.695-5.362,2.377-7.09,4.747c-0.08-0.97-0.16-1.92-0.22-2.85
				c1.805-1.787,4.04-3.078,6.49-3.75C107.63,22.983,107.9,23.613,108.2,24.253z"/>
			<path style="fill:#6E8996;" d="M110.54,28.583c-3.954,1.489-7.031,4.676-8.38,8.68c-0.24-1.18-0.44-2.39-0.58-3.6
				c1.819-3.079,4.603-5.473,7.92-6.81C109.85,27.483,110.2,28.073,110.54,28.583z"/>
			<path style="fill:#6E8996;" d="M112.59,33.593c-4.352,2.688-7.339,7.117-8.2,12.16c-0.3-0.93-0.69-2.18-1.09-3.64
				c1.554-4.418,4.636-8.135,8.69-10.48C112.21,32.273,112.41,32.943,112.59,33.593z"/>
			<path style="fill:#6E8996;" d="M114.65,39.683c-1.34,0.82-6.33,4.35-7.39,12.26c-0.566-0.858-1.074-1.753-1.52-2.68v-0.01
				c1.069-4.684,3.939-8.758,7.99-11.34L114.65,39.683z"/>
			<path style="fill:#6E8996;" d="M117.32,44.933c-3.553,2.652-5.912,6.604-6.56,10.99c-0.632-0.5-1.215-1.059-1.74-1.67
				c0.993-4.529,3.657-8.518,7.46-11.17C116.76,43.663,117.04,44.283,117.32,44.933z"/>
			<path style="fill:#6E8996;" d="M122.66,21.813c-3.82-1.55-8.29,0.02-10.35,0.93c-0.24-0.67-0.45-1.31-0.62-1.92
				c2.765-1.27,5.806-1.82,8.84-1.6C121.2,19.983,121.91,20.843,122.66,21.813z"/>
			<path style="fill:#6E8996;" d="M126.64,27.163c-4.83-2.19-10.11-0.69-12.47,0.2c-0.27-0.62-0.54-1.24-0.79-1.85
				c3.543-1.448,7.426-1.85,11.19-1.16C125.3,25.323,125.99,26.263,126.64,27.163z"/>
			<path style="fill:#6E8996;" d="M131.45,33.963c-5.08-3.47-11.38-2.7-14.54-1.98c-0.527-0.517-0.987-1.099-1.37-1.73
				c2.49-0.68,8.1-1.77,13.51,0.24C129.93,31.723,130.73,32.883,131.45,33.963z"/>
			<path style="fill:#6E8996;" d="M135.31,40.413c-4.176-2.314-8.91-3.428-13.68-3.22c-0.441-0.653-0.918-1.281-1.43-1.88
				c4.6-0.519,9.255,0.217,13.47,2.13C134.33,38.523,134.87,39.513,135.31,40.413z"/>
			<path style="fill:#6E8996;" d="M136.62,47.063c-3.76-2.296-8.031-3.622-12.43-3.86l-0.42-1.34l-0.22-0.69
				c4.655,0.118,9.21,1.382,13.26,3.68C136.979,45.591,136.913,46.364,136.62,47.063z"/>
		</g>
		<g>
			<path style="fill:#546973;" d="M101.75,35.161c-2.5-3.188-4.382,1.626-4.382,1.626L96.5,39.129l5.469,11.11
				c0.891-0.631,2.281-1.433,2.364-3.037c0.021-0.4,0.031-0.94,0.02-1.571c-1.117-3.396-1.972-6.873-2.557-10.4
				C101.78,35.206,101.766,35.181,101.75,35.161z"/>
			<path style="fill:#4A616C;" d="M104.353,45.631c-0.047-2.9-0.542-7.768-2.557-10.4C102.381,38.758,103.236,42.235,104.353,45.631
				z"/>
			<path style="fill:#D19A5C;" d="M97.156,39.1c0.526-3.458,0.041-5.843-0.917-5.557s-2.172,6.02-2.409,6.777
				c-0.371,1.201-0.587,2.444-0.644,3.7c0,3.858-1.093,6.14-2.436,10.452c1.138,2.453,6.938,3.25,6.938,3.25s1.942-4.9,2.229-5.625
				c0.4-1,1.493-1.442,2.052-1.859L97.156,39.1z"/>
			<path style="fill:#C28F55;" d="M97.156,39.1c0,0,1.765,4.5,1.044,6.72c1.369,1.374,2.629,2.853,3.769,4.422L97.156,39.1z"/>
		</g>
		<path style="fill:#2196F3;" d="M50.3,63.181c-7.788-2.55-12.7-1.981-16.046,6.042c-1.87,4.482,3.72,13.448,13.917,17.25
			c7.768,2.9,31.546,13.245,38.458,4.688c6.546-8.106,13.847-27.574,14.958-33.605L89.815,51.4L75.938,75.251L50.3,63.181z"/>
	</g>
	<g>
		<path style="fill:#E6B175;" d="M53.6,45.147c-1.058,2-3.771,4.586-7.875,6.935c-0.842,0.482-1.218,2.663-1.384,4.309
			c-0.108,0.714-0.42,1.381-0.9,1.92H26.1c2.184-1.558,3.86-3.725,4.819-6.23c1.023-2.516,0.619-5.387-1.058-7.523
			c-2.116-2.821-4.819-7.523-4.819-18.337c0-12.342,8.933-16.456,16.456-16.456c10.579,0,15.633,7.17,15.633,20.687
			C57.156,35.563,55.945,40.605,53.6,45.147z"/>
		<path style="fill:#212121;" d="M23.041,26.223c0-12.342,7.288-18.572,18.454-18.572c5.468,0.086,10.783,1.812,15.259,4.954
			c2.48,1.829,3.007,5.322,1.178,7.801c-0.568,0.77-1.323,1.38-2.195,1.774l-6.836,3.1c-1.475,0.843-2.376,2.421-2.351,4.12
			c-0.118,2-1.528,2.468-2.351,2.939c-0.94-3.879-2.351-4.7-3.644-4.7c-0.805-0.04-1.597,0.21-2.233,0.705
			c-0.887,0.995-1.314,2.318-1.175,3.644c0.18,2.025,0.814,3.984,1.853,5.731c0.717,0.906,0.637,2.207-0.186,3.018
			c-2.6,2.516-9.582,6.5-9.582,6.5C30.054,42.279,23.041,40.367,23.041,26.223z"/>
	</g>
	<g>
		<path style="fill:#64B5F6;" d="M48.75,59.973c0,0,4.849,6.882,5.418,7.761c2.485,3.843,9.155,17.19,9.155,49.739
			c0,8.949,2.427,90,2.427,90s-9,1.5-27-1l5.592-150.082L48.75,59.973z"/>
		<path style="fill:#E0E0E0;" d="M42.731,58.473c0,0,16.187,14,16.519,61h-19l-14-61H42.731z"/>
		<polygon style="fill:#BBDEFB;" points="54.75,66.973 57.75,91.473 44.342,56.391 44.615,54.772 49.75,58.973 51.25,62.973 		"/>
		<path style="fill:#E0E0E0;" d="M56.25,85.973c0-12-9-27.5-9-27.5l-2.908-2.082L56.25,85.973z"/>
		<polygon style="fill:#EEEEEE;" points="44.75,53.973 48.75,59.973 44.342,56.391 		"/>
		<path style="fill:#78909C;" d="M44.342,56.391l1.379,1.709c0.832,1.033,1.157,2.386,0.884,3.684l0,0
			c0,0,16.695,16.993,11.645,63.689c-0.065,0.6-0.441,11.338-0.441,11.338c-1.243-1.671-2.369-3.426-3.372-5.251
			c4.212-42.021-10.232-68.9-10.232-68.9l-1.865-0.827L44.342,56.391z"/>
		<polygon style="fill:#EEEEEE;" points="31.455,48.795 44.342,56.391 42.009,65.21 28.283,54.864 		"/>
		<path style="fill:#212121;" d="M18.29,290.04c-1.26-0.83-3.718-2.3-4.08-3.032c-0.693-1.4-0.06-3.858-0.06-6.69
			s0.1-4.845,0.1-4.845h10.567c0,0.606-0.155,2.754-0.155,4.675c0,2.5,2.817,5.761,5.2,7.545c2.634,2.093,4.024,5.381,3.688,8.729
			c-2.446,0.191-4.905-0.127-7.222-0.933C22.984,294.151,18.29,290.04,18.29,290.04z"/>
		<path style="fill:#212121;" d="M59.034,282.275c-10.338-2.214-9.583-7.8-9.583-7.8l-9.119,0.021l-0.508,10.458
			c0,0-0.515,3.521,1.619,3.521h23.608c0.054-0.332,0.05-0.67-0.014-1C64.785,285.944,63.658,283.333,59.034,282.275z"/>
		<path style="fill:#1D3B70;" d="M59.25,135.473h-23v9c0,0,0.247,25.616,0.948,32.144c1,9.312,1.626,47.208,1.626,47.208
			c-2.721,20.766,0.378,56.044,0.378,56.044H54.21c0,0,4.136-38.9,4.136-65.309c0-37.875,0.9-52.087,0.9-68.438L59.25,135.473z"/>
		<path style="fill:#1F4172;" d="M50.25,144.473c-0.66,26.61-8.1,60.508-10.763,71.488s-12.92,65.44-12.92,65.44
			s-0.512,2.544-5.25,2.875c-3.474,0.11-6.891-0.898-9.75-2.875c0-31.62,5.73-59.98,7.36-66.58c-1.14-26.1-0.8-52.49-0.8-52.49
			l0.123-26.858h32V144.473z"/>
		<path style="fill:#90CAF9;" d="M29.215,53.08c0,0-10.725,14.571-14.315,20.47c-7.337,12.056,1.242,34.377,1.476,45.173
			C12.875,138.723,0,199.661,0,199.661s12.25,16.312,60.25,11.312c0.493-9.975-1.049-73-0.5-89.5c0-18.5-3-25-4.5-30.5
			C49.75,76.473,29.215,53.08,29.215,53.08z"/>
		<path style="fill:#BBDEFB;" d="M29.215,53.08c0,0-1.822,2.543-4.176,5.856c1.647,2.003,3.178,4.097,4.588,6.273l6.686,0.507
			l0.937,5.257c0,0,12.608,8.8,18,20c-1.848-5.125-4.13-10.082-6.821-14.819C43.408,67.409,36.907,59.602,29.215,53.08z"/>
	</g>
	<g>
		
			<rect x="22.973" y="128.956" transform="matrix(0.7757 -0.6311 0.6311 0.7757 -81.959 59.8759)" style="fill:#E53935;" width="40.557" height="32.559"/>
		<g>
			<circle style="fill:#FFFFFF;" cx="47.463" cy="141.811" r="5.712"/>
			<polygon style="fill:#DD2C00;" points="50.843,140.534 49.401,138.762 47.628,140.204 46.186,138.431 44.414,139.873 
				45.856,141.646 44.084,143.088 45.526,144.86 47.298,143.418 48.74,145.19 50.513,143.748 49.07,141.976 			"/>
		</g>
	</g>
	<g>
		<path style="fill:#E6B175;" d="M44.888,145.41l2.66,3.506c2.052,2.616,3.931,5.362,5.628,8.221c1.366,2.743,1.63,3.4-0.233,5.007
			c-0.734,0.634-4.128,3.049-5.4,3.876c-3.584,2.321-6.664-2.641-8.5-8.549c-0.747-2.01-1.681-3.947-2.787-5.784L44.888,145.41z"/>
		<path style="fill:#E6B175;" d="M45.744,151.786l1.8-2.87c0.858,1.12,3.108,0.745,7.28,5.582c1.23,1.427,2.437,2.092,2.125,2.59
			c-1.917,2.25-4.642,0.331-5.743-0.394C49.274,155.186,47.449,153.546,45.744,151.786z"/>
		<path style="fill:#D19A5C;" d="M56.01,157.844c-1.059-0.015-2.056-0.502-2.718-1.329c-0.938-0.934-1.956-1.785-3.042-2.542
			c1.216,1.219,2.321,2.544,3.3,3.961C54.348,158.241,55.237,158.208,56.01,157.844z"/>
	</g>
	<path style="fill:#BBDEFB;" d="M15.185,87.569c0.608-3.992,1.635-10.448,7.168-14.472c1.832-1.096,3.934-1.659,6.069-1.624
		c6,0,9.828,6.051,9.828,12c0,7-6.975,33.266-6.975,33.266l15.975,28.734L33.357,154.5l-18.513-27.065
		c-2.568-4.353-3.766-9.379-3.437-14.422C11.407,113.013,14.215,93.926,15.185,87.569z"/>
</g>
</svg>