<svg xmlns="http://www.w3.org/2000/svg" version="1.1" xmlns:xlink="http://www.w3.org/1999/xlink" xmlns:svgjs="http://svgjs.com/svgjs" width="1444" height="1200" preserveAspectRatio="none" viewBox="0 0 1444 1200">
    <g mask="url(&quot;#SvgjsMask1000&quot;)" fill="none">
        <rect width="1444" height="1200" x="0" y="0" fill="rgba(191, 247, 230, 1)"></rect>
        <path d="M0,572.708C117.813,599.4,243.206,598.646,354.421,551.49C476.668,499.656,598.81,419.374,650.293,296.979C701.423,175.424,645.115,40.454,624.14,-89.738C603.549,-217.55,631.188,-379.048,528.648,-458.076C422.999,-539.5,264.648,-427.863,136.665,-465.439C8.686,-503.014,-68.522,-706.739,-197.067,-671.149C-324.805,-635.782,-285.565,-422.801,-373.982,-324.057C-464.869,-222.555,-656.377,-228.143,-707.007,-101.652C-756.783,22.706,-703.871,180.071,-616.356,281.48C-532.955,378.121,-379.747,356.768,-264.329,411.303C-169.058,456.319,-102.766,549.425,0,572.708" fill="#acf5de"></path>
        <path d="M1444 1740.958C1576.557 1748.863 1718.489 1872.73 1829.776 1800.279 1941.246 1727.7089999999998 1889.426 1548.9180000000001 1932.358 1423.026 1969.615 1313.774 2075.702 1225.65 2064.93 1110.724 2054.07 994.862 1949.338 916.002 1876.341 825.374 1800.424 731.12 1739.096 620.091 1629.096 569.621 1511.32 515.583 1368.487 486.341 1249.558 537.792 1132.877 588.271 1087.15 724.751 1020.405 832.953 964.043 924.323 904.854 1014.025 890.191 1120.374 875.582 1226.333 906.338 1328.925 937.933 1431.113 973.8399999999999 1547.25 983.03 1692.49 1086.703 1755.9650000000001 1190.467 1819.496 1322.548 1733.7150000000001 1444 1740.958" fill="#d3f9ee"></path>
    </g>
    <defs>
        <mask id="SvgjsMask1000">
            <rect width="1444" height="1200" fill="#ffffff"></rect>
        </mask>
    </defs>
</svg>