<svg xmlns="http://www.w3.org/2000/svg" version="1.1" viewBox="0 0 1200 800" width="1200" height="800">
<!--ITEM 1--><g><defs><clipPath id="clip-path-id-viewbox-item-1"><rect x="0.0" y="0.0" width="162.0" height="500.0"/></clipPath></defs><g transform="translate(834.0 39.0) rotate(0.0 117.0 360.5) scale(1.4444444444444444 1.442)"><g clip-path="url(#clip-path-id-viewbox-item-1)" transform="translate(-0.0 -0.0)"><linearGradient id="SVGID_1_-i1" gradientUnits="userSpaceOnUse" x1="1752.7941" y1="1617.6847" x2="1851.6469" y2="1459.7379" gradientTransform="matrix(0.1503 0 0 0.1503 -232.5418 -119.7942)">
	<stop offset="0" style="stop-color:#FFBEB6"/>
	<stop offset="1" style="stop-color:#F2A19C"/>
</linearGradient>
<path fill="url(#SVGID_1_-i1)" d="M59.934,124.115c-4.198,4.283-18.772,12.324-22.906,5.894c-4.172-6.49-13.995-25.72-9.288-48.014  c0.701-3.047,0.964-6.196,1.399-9.698c0.144-1.161,0.246-2.891-0.095-4.011c-0.341-1.118-1.312-2.56-2.481-2.579  c-0.714,0.001-2.099,0-2.349,1.62c-0.342,3.429-0.687,6.858-1.029,10.288c-1.833-0.668-5.707-4.632-7.035-1.255  c-2.361,6.004,0.128,4.854-8.105,22.049c-1.12,2.339,0.338,5.171,0.777,7.727c1.622,9.443,3.424,18.978,7.457,27.668  c2.284,4.921,5.429,9.676,10.085,12.456c3.085,1.841,6.637,2.705,10.129,3.543c7.342,1.762,15.456,3.443,22.131-0.088  c-0.227-15.32,14.352-26.987,17.386-42.004C70.653,113.178,65.293,118.647,59.934,124.115z"/>
<polygon fill="#23286B" points="103.632,120.804 55.632,162.622 0,98.657 48,56.839 "/>
<path fill="#DEEAFE" d="M130.837,61.264c-1.233-1.897-4.833-5.394-4.833-5.394s-2.49,0.451-3.592,0.242  c-5.857-1.108-15.821,0.995-15.821,0.995s-11.089,11.551-15.32,16.573c-21.309,25.289-41.743,53.586-45.767,86.421  c17.969,2.819,36.122,4.45,54.305,4.878c9.785-14.717,19.634-29.555,26.368-45.898s10.225-34.491,6.771-51.827  C132.531,65.163,131.997,63.05,130.837,61.264z"/>
<g id="shoes_2_-i1">
	<path id="R_shoe_2_-i1" fill="#1D72D8" d="M121.452,464.574l12.687,35.423L44.57,500c0,0,4.593-8.866,19.904-15.433   C79.784,478,92.22,464.571,92.22,464.571L121.452,464.574"/>
</g>
<linearGradient id="R_trousers_3_-i1" gradientUnits="userSpaceOnUse" x1="1985.3823" y1="3072.6116" x2="2363.2039" y2="3072.6116" gradientTransform="matrix(0.1503 0 0 0.1503 -232.5418 -119.7942)">
	<stop offset="0" style="stop-color:#28306D"/>
	<stop offset="0.51" style="stop-color:#1F275F"/>
	<stop offset="1" style="stop-color:#171F51"/>
</linearGradient>
<path id="R_trousers_2_-i1" fill="url(#R_trousers_3_-i1)" d="M68.618,337.866c0.064,22.609,23.878,127.016,23.878,127.016h30.152  c0,0-2.25-29.626-3.529-48.763c-1.295-19.117-6.462-15.196-4.454-29.992c2.001-14.786,0.383-24.355-2.785-40  c-7.703-17.742-8.256-25.38-1.803-66.126c-0.875-14.93-0.82-33.65-0.32-47.367c-2.449,2.282-9.381-13.479-9.381-13.479  c-11.513,2.442-23.054,3.571-34.515,3.38C68.093,259.629,69.803,318.2,68.618,337.866z"/>
<g id="head-i1">
	
		<linearGradient id="neck_1_-i1" gradientUnits="userSpaceOnUse" x1="1310.8402" y1="-626.5117" x2="1376.4716" y2="-249.8406" gradientTransform="matrix(-0.0835 0 0 -0.0835 228.9238 20.8426)">
		<stop offset="0" style="stop-color:#FFBEB6"/>
		<stop offset="1" style="stop-color:#F2A19C"/>
	</linearGradient>
	<path id="neck-i1" fill="url(#neck_1_-i1)" d="M108.339,43.413c0,0,2.062,8.402-1.767,13.707c0,0,9.478,8.198,19.492-1.234l0,0   l-3.292-21.758L108.339,43.413z"/>
	<path id="face-i1" fill="#FFBEB6" d="M90.789,28.017c0.007,0.112,0.016,0.195,0.017,0.245c-0.004,0.017-0.004,0.033,0.001,0.051   c0.027,0.45,0.073,0.907,0.132,1.378c0.634,5.072-1.964,9.786-1.612,11.137c0.352,1.352,3.223,1.583,4.518,1.38   c1.295-0.204,4.433,5.698,10.505,8.02c5.698,2.18,12.82-0.102,16.922-3.971c-0.812-10.999-3.713-15.54-15.087-17.659   C93.768,26.28,92.48,18.853,92.48,18.853C91.235,21.743,90.661,24.873,90.789,28.017z"/>
	
		<linearGradient id="eyeglasses_1_-i1" gradientUnits="userSpaceOnUse" x1="2101.4023" y1="1021.876" x2="2232.3694" y2="1021.876" gradientTransform="matrix(0.1503 0 0 0.1503 -232.5418 -119.7942)">
		<stop offset="0" style="stop-color:#28306D"/>
		<stop offset="0.51" style="stop-color:#1F275F"/>
		<stop offset="1" style="stop-color:#171F51"/>
	</linearGradient>
	<path id="eyeglasses-i1" fill="url(#eyeglasses_1_-i1)" d="M83.594,33.227c-0.839-2.403,0.049-4.908,1.98-5.588h0.001   c1.932-0.676,4.188,0.729,5.028,3.131c0.096,0.276,0.171,0.558,0.222,0.844c1.265-0.087,2.512,0.322,3.48,1.14   c0.035-0.138,0.055-0.28,0.101-0.415c0.352-1.163,1.225-2.096,2.363-2.522c2.236-0.783,4.847,0.848,5.822,3.635   c0.466,1.272,0.494,2.664,0.078,3.954c-0.288,0.91-0.885,1.689-1.688,2.201c-0.213,0.13-0.439,0.237-0.673,0.32   c-1.155,0.377-2.418,0.193-3.419-0.496c-1.128-0.748-1.974-1.854-2.402-3.139c-0.319-0.904-0.428-1.866-0.32-2.816   c-0.884-0.818-2.058-1.247-3.26-1.194c0.171,1.484-0.484,2.944-1.706,3.803c-0.182,0.111-0.375,0.203-0.576,0.273   C86.692,37.035,84.436,35.63,83.594,33.227z M97.251,38.864c1.36,1.006,3.28,0.718,4.284-0.644c0.228-0.309,0.396-0.66,0.496-1.031   c0.366-1.147,0.34-2.382-0.076-3.511c-0.852-2.436-3.078-3.882-4.961-3.221c-0.19,0.066-0.371,0.152-0.544,0.258   c-0.67,0.431-1.168,1.084-1.406,1.845C94.335,34.918,95.225,37.464,97.251,38.864L97.251,38.864z M88.401,35.721   c1.584-0.557,2.283-2.674,1.565-4.727c-0.718-2.052-2.589-3.272-4.169-2.719c-1.587,0.556-2.283,2.676-1.565,4.727   C84.949,35.056,86.819,36.275,88.401,35.721L88.401,35.721z"/>
	<path id="hair-i1" fill="#23286B" d="M110.99,0.807c12.167-3.406,21.558,4.876,23.196,7.941c1.557,3.203,3.289,6.317,5.187,9.331   c0.471,0.588,0.958,1.164,1.48,1.711c2.379,2.491,5.126,3.776,8.104,5.31c3.363,1.731,6.214,3.88,6.715,7.835   c0.06,0.488-0.705,0.483-0.765,0c-0.771-6.097-7.599-7.18-11.832-10.171c1.011,1.071,2.176,1.985,3.456,2.711   c3.495,1.777,6.281,4.696,7.893,8.271c-13.554,14.878-32.977,15.693-32.977,15.693c-0.299-7.528-1.17-12.462-4.109-15.75   c3.393,4.944,3.963,11.299,1.504,16.768c-0.193,0.453-0.852,0.062-0.662-0.386c2.987-6.615,1.204-14.412-4.36-19.067   c-2.414-1.178-4.989-1.991-7.641-2.409c-12.418-2.316-13.702-9.745-13.702-9.745c-1.273,2.986-1.846,6.224-1.672,9.467   C84.746,12.307,98.822,4.213,110.99,0.807z"/>
</g>
<g id="shoes_1_-i1">
	
		<linearGradient id="R_shoe_3_-i1" gradientUnits="userSpaceOnUse" x1="2029.0901" y1="4005.8525" x2="2625.0288" y2="4005.8525" gradientTransform="matrix(0.1503 0 0 0.1503 -232.5418 -119.7942)">
		<stop offset="0" style="stop-color:#3E8AF8"/>
		<stop offset="1" style="stop-color:#1479F2"/>
	</linearGradient>
	<path id="R_shoe_1_-i1" fill="url(#R_shoe_3_-i1)" d="M149.313,464.574L162,499.997L72.43,500c0,0,4.593-8.866,19.904-15.433   c15.31-6.567,27.746-19.996,27.746-19.996L149.313,464.574"/>
</g>
<path id="R_trousers_1_-i1" fill="#23286B" d="M71.637,337.866c2.307,22.609,48.444,126.708,48.444,126.708h29.263  c0,0,4.684-29.318,1.011-48.455c-3.693-19.117-10.581-15.196-9.203-29.992c1.367-14.786,0.063-25.229-7.836-40  c-10.257-19.178-14.588-23.333-9.014-66.126c1.959-15.044-9.318-69.713-9.958-83.429c-4.047-5.738-12.467-4.73-12.467-4.73  c-15.958,2.442-32.088,3.571-48.229,3.38C60.419,232.314,71.378,318.2,71.637,337.866z"/>
<path fill="#DEEAFE" d="M67.412,310.17c-1.37,0.277-2.885,0.531-4.091-0.178c-1.301-0.762-1.791-2.369-2.172-3.829  c-12.498-47.744-23.883-97.643-15.98-146.361c19.383,0.473,37.554,1.392,56.937,1.863c2.466,15.896,11.674,29.775,19.798,43.654  c15.147,25.876,27.206,53.562,35.838,82.28C127.993,296.478,97.841,304.011,67.412,310.17z"/>
<polygon fill="#FFFFFF" points="105.808,70.176 102.656,66.178 106.65,63.023 109.802,67.02 "/>
<polygon fill="#FFFFFF" points="92.831,88 89.679,84.002 93.673,80.847 96.825,84.844 "/>
<polygon fill="#FFFFFF" points="79.601,108.626 76.448,104.629 80.442,101.473 83.595,105.471 "/>
<polygon fill="#FFFFFF" points="68.659,133.072 65.506,129.075 69.5,125.919 72.653,129.917 "/>
<polygon fill="#FFFFFF" points="52.375,191.132 49.222,187.134 53.216,183.979 56.369,187.976 "/>
<polygon fill="#FFFFFF" points="53.899,225.51 50.746,221.513 54.74,218.357 57.893,222.354 "/>
<g>
	<path fill="#FFFFFF" d="M99.515,171.139c-0.161,0-0.322-0.001-0.482-0.003c-6.405-0.076-12.804-1.234-18.992-2.354   c-2.891-0.523-5.88-1.064-8.827-1.486c-11.57-1.661-20.218-0.858-27.219,2.52l-0.464-0.899c4.616-2.556,9.597-4.28,14.803-5.124   c5.211-0.845,10.628-0.769,15.299-0.63c4.923,0.145,9.906,0.398,14.815,0.749c3.68,0.263,7.465,0.592,11.196,1.278   c-1.45-0.665-3.018-1.139-4.473-1.517c-16.241-4.22-33.621-5.297-50.261-3.118l-0.132-1.003   c16.765-2.199,34.279-1.109,50.645,3.142c2.459,0.639,5.229,1.547,7.327,3.161c2.499,0.615,4.953,1.431,7.313,2.536l-0.336,0.949   l-2.602-0.641l0.102-0.408c-0.972-0.369-1.959-0.694-2.956-0.982c0.519,0.628,0.947,1.338,1.256,2.138l0.165,0.428l-0.411,0.206   C103.494,170.977,101.472,171.139,99.515,171.139z M60.534,165.448c3.314,0,6.905,0.282,10.823,0.844   c2.965,0.425,5.963,0.968,8.863,1.493c6.148,1.112,12.503,2.263,18.824,2.338c1.818,0.023,3.706-0.06,5.349-0.749   c-0.485-1.028-1.217-1.878-2.101-2.59c-4.583-1.106-9.334-1.537-13.921-1.865c-4.895-0.35-9.864-0.601-14.773-0.747   c-4.622-0.139-9.984-0.213-15.107,0.618c-1.779,0.289-3.53,0.681-5.249,1.179C55.519,165.622,57.942,165.448,60.534,165.448z"/>
</g>
<linearGradient id="SVGID_2_-i1" gradientUnits="userSpaceOnUse" x1="1624.545" y1="1345.3372" x2="1745.9304" y2="1415.781" gradientTransform="matrix(0.1503 0 0 0.1503 -232.5418 -119.7942)">
	<stop offset="0" style="stop-color:#FFBEB6"/>
	<stop offset="1" style="stop-color:#F2A19C"/>
</linearGradient>
<path fill="url(#SVGID_2_-i1)" d="M32.859,85.22c-0.169-0.639-0.646-1.143-1.112-1.611c-3.692-3.706-5.909-5.753-10.334-8.542  c-0.986-0.622-1.228-1.167-2.481-1.241c-1.071,0.281-2.615,1.499-2.863,2.579c-0.263,1.151,0.596,3.38,1.526,4.106  c0.134,0.104,0.272,0.19,0.408,0.288c-0.277-0.136-0.54-0.267-0.833-0.407c-2.119-1.006-1.371-0.994-2.623-0.902  c-1.025,0.421-2.395,1.832-2.497,2.935c-0.048,0.517,0.184,1.07,0.536,1.582c-0.514-0.368-0.412-0.341-1.183-0.363  c-0.907,0.267-2.193,1.346-2.375,2.273c-0.018,0.089-0.115,0.605-0.117,0.706c-0.77,0.347-1.146,0.478-1.803,0.979  c-0.782,0.335-1.816,1.435-1.881,2.284c-0.07,0.905,0.837,2.501,1.627,2.945c2.206,1.244,4.158,1.819,6.543,2.673  c1.335,0.478,2.171,0.996,3.142,1.142c0.619,0.093,1.16-0.007,2.081-0.643c0.418-0.289,0.563-0.865,0.362-1.331  c-0.201-0.465,0.588-0.101,1.639,0.187c0.67,0.183,1.281,0.144,2.381-0.435c0.499-0.263,0.736-0.88,0.575-1.421  c-0.161-0.541-0.582-0.958-0.991-1.346c-1.457-1.376-2.658-2.459-3.885-3.45c1.315,0.743,2.645,1.422,4.045,1.949  c1.195,0.451,2.627,1.094,3.888,1.303c0.804,0.134,1.511,0.016,2.723-0.793c0.549-0.367,0.751-1.114,0.5-1.725  c-0.252-0.611-0.792-1.048-1.316-1.45c-2.315-1.777-3.806-3.129-2.741-2.3c1.009,0.786,2.309,1.726,3.53,2.101  c0.779,0.239,1.495,0.215,2.804-0.426C32.73,86.573,33.028,85.859,32.859,85.22z"/>
<g>
	<path fill="#23286B" d="M104.784,116.574l-0.883-0.493c2.128-3.816,0.108-8.457-0.859-10.275c-0.777-1.46-1.728-2.868-2.647-4.23   c-1.154-1.708-2.347-3.474-3.235-5.392c-3.385-7.312-2.112-15.433-0.241-24.525c1.333-6.478,6.958-14.909,9.468-16.128   c0.444-0.216,0.832-0.242,1.156-0.081l-0.452,0.907c0.006,0.003,0.01,0.004,0.01,0.004c-1.176-0.222-7.726,8.381-9.191,15.504   c-1.835,8.912-3.087,16.86,0.168,23.894c0.854,1.843,2.023,3.576,3.155,5.251c0.935,1.384,1.901,2.813,2.703,4.322   C104.981,107.295,107.156,112.325,104.784,116.574z"/>
</g>
<circle fill="#23286B" cx="104.709" cy="120.332" r="4.966"/>
<g>
	<path fill="#428DFC" d="M80.114,168.347l-0.171-0.997c16.717-2.868,15.692-22.086,15.355-28.401l1.011-0.055   C97.243,156.433,91.795,166.342,80.114,168.347z"/>
</g>
<g>
	<path fill="#428DFC" d="M98.599,168.459c-1.257,0-5.966-1.389-10.03-5.855c-3.501-3.85-7.428-11.074-6.249-23.625l1.008,0.096   c-1.146,12.184,2.625,19.151,5.989,22.848c3.787,4.164,8.191,5.524,9.282,5.524V168.459L98.599,168.459z"/>
</g>
<g>
	<path fill="#23286B" d="M96.943,141.468H94.92v-4.275c0-3.052-2.481-5.536-5.532-5.536h-0.273c-3.05,0-5.532,2.483-5.532,5.536   v4.275h-2.023v-4.275c0-4.17,3.389-7.561,7.555-7.561h0.273c4.166,0,7.555,3.392,7.555,7.561V141.468z"/>
</g>
<rect x="77.229" y="166.361" fill="#428DFC" width="3.436" height="3.439"/>
<rect x="97.648" y="166.361" fill="#428DFC" width="3.436" height="3.439"/>
<linearGradient id="SVGID_3_-i1" gradientUnits="userSpaceOnUse" x1="2159.6675" y1="1853.3549" x2="2552.8083" y2="1853.3549" gradientTransform="matrix(0.1503 0 0 0.1503 -232.5418 -119.7942)">
	<stop offset="0" style="stop-color:#FFBEB6"/>
	<stop offset="1" style="stop-color:#F2A19C"/>
</linearGradient>
<path fill="url(#SVGID_3_-i1)" d="M133.334,79.841c-6.877,5.104-10.935,26.588-14.503,34.378c-7.549,16.478-16,28.326-19.912,43.809  c-5.708,22.592-5.013,48.901-4.743,75.352c0.019,0.001-0.939,4.344-2.12,8.423h16.88c-1.314-1.397-2.632-2.868-3.927-4.434  c-3.425-4.568-3.071-17.094-2.206-23.833c1.121-8.731,4.628-19.55,8.397-27.503c7.02-14.816,18.17-33.315,25.19-48.13  c8.702-18.365,13.94-38.849,14.756-59.158C143.766,74.395,140.212,74.737,133.334,79.841z"/>
<linearGradient id="SVGID_4_-i1" gradientUnits="userSpaceOnUse" x1="2355.3416" y1="1535.9288" x2="2620.7019" y2="1839.6663" gradientTransform="matrix(0.1503 0 0 0.1503 -232.5418 -119.7942)">
	<stop offset="0" style="stop-color:#DEEAFE"/>
	<stop offset="1" style="stop-color:#A1C3FC"/>
</linearGradient>
<path fill="url(#SVGID_4_-i1)" d="M128.799,55.855c12.245,0.55,20.992,11.131,23.928,23.043c2.935,11.912,0.085,24.427-3.258,36.231  c-6.295,22.225-14.363,43.948-24.102,64.895c-4.628-9.651-18.941-18.512-29.817-24.549c12.365-19.657,18.002-35.334,21.892-58.233  c-0.308-0.252,5.112-15.268,5.921-22.234c0.761-6.555,1.918-12.597,2.679-19.152C127.071,55.781,127.536,55.798,128.799,55.855z"/>
<path fill="#E7EFFE" d="M80.349,275.58c-1.243-16.867-3.777-52.539-4.737-58.597c13.317-0.505,26.635-1.009,39.952-1.514  c1.086,19.157,2.173,38.311,3.259,57.468C105.958,272.967,93.097,273.851,80.349,275.58z"/>
<g>
	<path fill="#23286B" d="M88.569,131.09c-0.99-7.672-0.706-15.402,0.85-22.978c0.9-4.383,2.065-7.721,3.666-10.507   c1.714-2.981,4.101-5.57,6.21-7.709c4.379-4.441,9.156-8.551,14.199-12.215c0.852-0.619,1.717-1.232,2.588-1.849   c5.42-3.84,11.024-7.812,13.867-13.696c0.926-1.917,1.844-4.764,0.963-7.443c-0.732-2.222-3.146-4.231-5.58-3.679l-0.148-0.983   c3.061-0.694,5.824,1.713,6.691,4.345c0.988,3.001-0.006,6.116-1.013,8.2c-2.957,6.118-8.668,10.167-14.193,14.081   c-0.866,0.614-1.729,1.225-2.577,1.841c-4.998,3.632-9.734,7.706-14.073,12.107c-2.168,2.199-4.402,4.629-6.054,7.503   c-1.547,2.689-2.676,5.931-3.552,10.204c-1.533,7.466-1.814,15.085-0.836,22.645L88.569,131.09z"/>
</g>
</g></g></g><!--ITEM 2--><g><defs><clipPath id="clip-path-id-viewbox-item-2"><rect x="0.0" y="0.0" width="51.409" height="230.988"/></clipPath></defs><g transform="translate(1086.0 141.0) rotate(-163.70074045821917 11.0 -50.0) scale(0.42794063296309987 -0.43292292240289537)"><g clip-path="url(#clip-path-id-viewbox-item-2)" transform="translate(-0.0 -0.0)"><path fill="#E94A47" d="M48.409,0H3C1.249,0-0.13,1.494,0.01,3.239l12.725,158.992c0.125,1.559,1.426,2.761,2.99,2.761h19.96  c1.564,0,2.866-1.202,2.99-2.761L51.399,3.239C51.539,1.494,50.16,0,48.409,0z"/>
<circle fill="#E94A47" cx="25.705" cy="206.24" r="24.749"/>
<polygon fill="#FFFFFF" points="48.924,34.163 5.926,77.161 6.869,88.947 47.817,47.998 "/>
<polygon fill="#FFFFFF" points="8.186,105.401 9.129,117.185 45.164,81.15 46.271,67.315 "/>
</g></g></g><!--ITEM 3--><g><defs><clipPath id="clip-path-id-viewbox-item-3"><rect x="0.0" y="0.0" width="10.682" height="88.407"/></clipPath></defs><g transform="translate(469.0 288.0) rotate(47.44255653588831 7.5 63.0) scale(1.4042314173375772 1.4252265092130714)"><g clip-path="url(#clip-path-id-viewbox-item-3)" transform="translate(-0.0 -0.0)"><g>
	<path fill="#A1C3FC" d="M10.682,86.455H0V2.324c0.621-2.855,9.846-3.333,10.681,0L10.682,86.455z"/>
	
		<linearGradient id="SVGID_1_-i3" gradientUnits="userSpaceOnUse" x1="1.055359e-005" y1="-2971.9023" x2="10.682" y2="-2971.9023" gradientTransform="matrix(1 0 0 -1 0 -2926.5369)">
		<stop offset="0" style="stop-color:#EEEEEE"/>
		<stop offset="1" style="stop-color:#D6D7D8"/>
	</linearGradient>
	<path fill="url(#SVGID_1_-i3)" d="M10.682,86.455c-3.691,2.502-7.262,2.702-10.682,0L0,2.324c3.658,2.201,7.212,2.059,10.681,0   L10.682,86.455z"/>
</g>
</g></g></g><!--ITEM 4--><g><defs><clipPath id="clip-path-id-viewbox-item-4"><rect x="0.0" y="0.0" width="222.725" height="228.849"/></clipPath></defs><g transform="translate(405.0 101.0) rotate(0.0 94.5 97.0) scale(0.8485800875519138 0.8477205493578736)"><g clip-path="url(#clip-path-id-viewbox-item-4)" transform="translate(-0.0 -0.0)"><ellipse transform="matrix(0.9848 -0.1735 0.1735 0.9848 -11.305 19.9699)" fill="#FFFFFF" cx="108.596" cy="74.661" rx="109.587" ry="68.971"/>
<g>
	<path fill="#1B236D" d="M137.572,228.849c-0.601,0-1.168-0.363-1.398-0.957c-3.227-8.302-1.036-17.427,1.083-26.252   c2.366-9.855,4.601-19.166-0.746-26.485c-4.082-5.589-11.496-7.84-18.21-9.304c-8.461-1.847-17.224-3.055-25.699-4.223   c-10.65-1.468-21.663-2.985-32.268-5.789c-22.75-6.016-39.725-17.867-47.798-33.371c-2.438-4.682-4.06-9.767-4.9-15.065   c-2.286-3.25-4.153-6.835-5.474-10.785c-9.544-28.539,15.402-57.58,42.62-72.486C70.848,9.855,100.316,1.51,130,0   c0.82-0.019,1.532,0.594,1.574,1.422c0.042,0.827-0.595,1.532-1.422,1.574c-29.235,1.487-58.258,9.705-83.93,23.766   C20.064,41.088-3.992,68.761,5.006,95.666c0.557,1.665,1.219,3.261,1.977,4.791C6.458,83.998,12.927,66.3,25.448,52.471   c14.257-15.747,34.837-26.99,64.765-35.384c41.547-11.651,75.993-10.385,102.382,3.762c16.829,9.022,32.574,27.162,29.813,47.35   c-1.072,7.834-4.768,15.582-11.631,24.382c-16.582,21.261-41.121,36.218-70.964,43.252c-27.02,6.369-57.524,5.889-85.896-1.353   c-14.119-3.603-31.021-10.158-42.102-21.961c0.839,2.974,1.963,5.841,3.382,8.564c10.359,19.895,33.207,28.498,45.903,31.855   c10.429,2.757,21.35,4.262,31.911,5.718c8.532,1.176,17.354,2.392,25.929,4.263c7.264,1.585,15.319,4.067,19.993,10.466   c6.166,8.44,3.662,18.869,1.24,28.956c-2.011,8.376-4.09,17.037-1.204,24.465c0.3,0.771-0.083,1.641-0.854,1.941   C137.937,228.817,137.753,228.849,137.572,228.849z M10.482,106.222c10.186,13.998,28.87,21.445,44.177,25.352   c50.606,12.915,117.772,5.296,153.753-40.839c6.524-8.364,10.027-15.655,11.024-22.942c2.566-18.762-12.343-35.768-28.257-44.299   C165.494,9.723,131.797,8.541,91.024,19.976c-29.36,8.233-49.49,19.199-63.352,34.509C14.155,69.413,7.987,88.997,10.482,106.222z"/>
</g>
</g></g></g><!--ITEM 5--><g><defs><clipPath id="clip-path-id-viewbox-item-5"><rect x="0.0" y="0.0" width="206.382" height="298.017"/></clipPath></defs><g transform="translate(85.0 202.0) rotate(0.0 193.5 279.5) scale(1.8751635317033462 1.8757319213333468)"><g clip-path="url(#clip-path-id-viewbox-item-5)" transform="translate(-0.0 -0.0)"><path fill="#D62929" d="M8.639,275.79c-2.86,1.244-7.545,17.602-8.639,21.871c1.436,0.122,61.799,0.212,73.76,0.355  c0.715,0.009,1.202-0.709,0.935-1.372c-1.143-2.834-3.335-7.722-9.306-10.729c-6.035-3.04-17.415-8.61-23.625-11.125  c-7.311-2.961-8.413-1.548-16.227-1.135C19.184,273.992,9.34,275.649,8.639,275.79z"/>
<path fill="#E94A47" d="M106.431,275.79c-2.86,1.244-7.545,17.602-8.639,21.871c1.436,0.122,61.799,0.212,73.76,0.355  c0.715,0.009,1.202-0.709,0.935-1.372c-1.143-2.834-3.335-7.722-9.306-10.729c-6.035-3.04-17.415-8.61-23.625-11.125  c-7.311-2.961-8.413-1.548-16.227-1.135C116.975,273.992,107.131,275.649,106.431,275.79z"/>
<path fill="#151A4F" d="M87.388,177.249c-0.662,10.785-1.085,21.712-2.269,32.293c-1.262,11.274-13.836,22.95-18.365,33.514  c-3.414,7.963-13.821,31.247-16.092,35.374c-4.088-0.346-42.218-0.684-44.012-0.934c-3.262-14.01,6.432-19.809,12.665-30.487  c3.143-5.385,2.073-12.368,2.74-18.519c0.79-7.285,2.191-10.323,6.553-16.032c3.143-4.113,8.668-8.947,10.928-13.276  c2.463-4.719,1.008-12.295,0.818-17.444c-0.393-10.615-0.918-21.277-0.842-31.947c0.045-6.334-0.839-13.576,0.418-19.792  c14.579,4.498,34.331,5.373,49.771,7.824C89.681,140.45,88.095,165.734,87.388,177.249z"/>
<linearGradient id="SVGID_1_-i5" gradientUnits="userSpaceOnUse" x1="-242.209" y1="100.5899" x2="-225.8362" y2="102.7354" gradientTransform="matrix(1 0 0 1 434.3185 0)">
	<stop offset="0" style="stop-color:#FFBEB6"/>
	<stop offset="1" style="stop-color:#F2A19C"/>
</linearGradient>
<path fill="url(#SVGID_1_-i5)" d="M176.811,89.012c2.986,0.287,5.092,0.131,7.302-0.001c2.429-0.145,4.857-0.566,7.302-0.572  c2.581-0.007,5.183,0.929,7.159,2.534c2.207,1.793,4.678,3.6,6.698,5.666c1.925,1.969,0.733,5.452,0.859,7.972  c0.049,0.983,0.372,2.865-0.14,3.73c-0.62,1.046-2.519,1.221-3.551,1.611c-2.449,0.926-5.178,2.591-7.732,2.971  c-3.426,0.51-2.965-2.963-0.573-4.296c0.765-0.426,3.338-0.655,3.74-1.425c0.358-0.684-0.939-3.064-1.188-3.83  c-2.602,2.723-7.971,2.18-11.287,1.815c-2.289-0.252-3.689-2.297-5.727-2.288c-2.302,0.01-5.316-0.117-7.567,0.383  c-0.248-4.596,0.015-9.291,0.286-13.824C173.878,89.287,176.88,88.915,176.811,89.012z"/>
<path fill="#FFBEB6" d="M194.998,100.063c1.925,2.976,7.736,8.01,7.53,11.785c-0.135,2.481-1.708,3.114-3.275,2.145  c-2.356-1.457-5.163-5.778-6.755-6.831c-3.161-2.09-14.496-1.371-10.262-8.111C184.861,94.874,191.021,88.752,194.998,100.063z"/>
<path fill="#78A9EF" d="M126.566,29.291c-0.004,7.055-0.995,45.977,4.741,51.225c5.138,4.701,13.838,8.807,20.457,8.775  c16.707-0.082,12.944,0.39,29.141-0.433c-0.391,7.517,0.17,13.925-0.036,21.238c-7.264,4.962-7.38,11.696-23.207,9.347  c-6.742-1.001-9.606-0.312-16.516-0.652c-7.644-0.377-12.963,2.718-20.047,2.6c-16.853-0.28-23.205-23.383-21.894-36.269  c0.724-7.113,2.154-16.698,6.177-22.804c5.341-8.105-1.11-35.215,7.383-37.028C113.365,24.545,127.91,29.82,126.566,29.291z"/>
<path fill="#23286B" d="M49.914,144.964c4.744,6.7,7.547,18.043,10.338,25.777c2.863,7.935,5.451,16.086,7.385,24.212  c1.802,7.571,0.418,15.807,3.068,23.177c3.03,8.425,9.522,11.785,13.745,19.088c3.805,6.581,3.872,15.142,6.25,22.357  c1.395,4.232,2.839,8.689,5.735,12.233c1.734,2.122,7.836,7.415,7.836,7.415s37.568-0.317,44.575-0.084  c-3.52-6.319-7.405-13.736-10.214-20.565c-3.146-7.646-5.353-16.151-6.817-24.084c-2.827-15.317-8.14-29.225-13.848-44.081  c-6.199-16.134-11.187-32.034-15.871-48.579c-9.476,2.425-16.897,3.99-26.733,4.498C69.641,146.623,54.282,149.353,49.914,144.964z"/>
<linearGradient id="SVGID_2_-i5" gradientUnits="userSpaceOnUse" x1="80.3477" y1="47.9144" x2="76.3052" y2="153.9199" gradientTransform="matrix(0.9416 0.1263 -0.1329 0.9911 19.3755 -9.2158)">
	<stop offset="0" style="stop-color:#A1C3FC"/>
	<stop offset="1" style="stop-color:#78A9EF"/>
</linearGradient>
<path fill="url(#SVGID_2_-i5)" d="M122.885,32.529l-0.731,122.3l-91.766,0.428c0,0,0.299,2.379-1.534-7.562  c-6.579-35.677,0.924-84.226,28.191-113.73c11.103-12.014,21.207-15.89,30.467-18.759c8.621-2.671,32.219-1.78,33.909-0.115  C123.398,17.04,122.885,32.529,122.885,32.529z"/>
<g>
	<path fill="#D6D7D8" d="M147.485,7.595c3.245-0.323,5.015-1.745,8.405-0.084c2.808,1.376,6.159,5.128,7.123,8.16   c1.296,4.076-0.133,13.992-1.669,17.52c-6.603-1.202-12.295-4.891-18.228-6.787c-0.743-4.559-0.4-15.54,3.82-18.07   C146.664,8.015,147.757,7.914,147.485,7.595z"/>
	<circle fill="#23286B" cx="161.267" cy="29.669" r="4.415"/>
	<path fill="#F2A19C" d="M137.008,1.388c7.717-1.462,17.901,8.842,20.261,15.308c2.542,6.964,0.768,14.429-1.061,21.421   c-0.667,2.548-1.253,8.287-3.156,10.265c-2.423,2.518-8.2,1.945-11.493,2.331c-8.689,1.019-17.203-2.342-20.922-10.721   c-3.071-6.92-5.463-17.153-2.461-24.435c1.635-3.967,5.116-7.694,8.916-9.796C129.236,4.575,137.489,2.716,137.008,1.388z"/>
	<path fill="#F2A19C" d="M156.578,23.434c2.889,2.512,12.531,18.367,3.225,17.082c-2.406-0.332-7.061-4.629-7.323-6.218   C151.826,30.321,158.465,26.998,156.578,23.434z"/>
	<path fill="#EEEEEE" d="M153.739,10.614c-5.735-6.175-12.826-4.349-10.711,3.079c1.818,6.384,4.082,9.579,2.151,16.429   c-7.834-0.508-21.808-4.382-28.788-8.348c0.614-8.662,6.936-16.134,14.935-19.907c8.687-4.098,16.546-1.003,20.377,4.961   C153.413,9.489,152.836,8.823,153.739,10.614z"/>
	<path fill="#F2A19C" d="M138.969,33.936c1.968-2.381-0.37-13.495-6.484-10.159c-5.14,2.805-1.759,11.5-1.546,15.181   C133.315,37.847,139.515,36.866,138.969,33.936z"/>
	<circle fill="#23286B" cx="152.752" cy="30.149" r="4.512"/>
	<g>
		<path fill="#23286B" d="M153.021,26.634c-0.273,0-0.497-0.221-0.5-0.495c-0.003-0.275,0.219-0.502,0.495-0.505l9.398-0.1    c0.001,0,0.003,0,0.005,0c0.273,0,0.497,0.221,0.5,0.495c0.003,0.275-0.219,0.502-0.495,0.505l-9.398,0.1    C153.025,26.634,153.023,26.634,153.021,26.634z"/>
	</g>
</g>
<path fill="#FFBEB6" d="M66.707,145.779c-1.108,7.857,2.379,8.267,2.258,12.385c-0.07,2.371-1.311,11.097-0.215,15.17  c0.737,2.74-3.456,2.452-4.629-1.081c-1.255-3.78-1.341-8.28-0.807-12.448c-0.978,3.758-2.797,19.083-7.913,14.362  c-1.073-0.99-1.52-1.882-1.442-3.561c-3.24,1.583-5.454-1.611-4.969-4.884c-8.291-1.431-1.102-17.521-0.376-22.703  c5.721,0.818,7.219,2.846,13.357,1.547C62.354,145.679,66.917,144.291,66.707,145.779z"/>
<linearGradient id="SVGID_3_-i5" gradientUnits="userSpaceOnUse" x1="98.3845" y1="38.9322" x2="67.1108" y2="87.0838">
	<stop offset="0" style="stop-color:#A1C3FC"/>
	<stop offset="1" style="stop-color:#78A9EF"/>
</linearGradient>
<path fill="url(#SVGID_3_-i5)" d="M114.264,28.291c-40.833,12.544-44.422,58.281-44,94c0.056,4.774-1,26.889-1,26.889  s-18.811,0.96-26.815,1.147c-1.559-5.742-7.584-16.936-6.685-26.036c0.532-5.386,3.503-9.761,4.889-14.879  c1.43-5.28,0.798-10.431-0.374-15.647c-2.137-9.509-4.516-18.565-0.875-27.974c3.421-8.841,9.912-15.143,16.334-21.502  c8.567-8.483,14.973-19.908,27.028-24.387c9.625-3.576,21.82-1.995,31.924-2.173c-0.134,3.36,0.565,6.708,0.575,10.136  C114.628,28.263,114.962,28.738,114.264,28.291z"/>
<path id="texture-2_13_-i5" opacity="0.51" fill="#FFFFFF" enable-background="new    " d="M93.897,39.992  c-0.099-0.024-0.199,0.038-0.223,0.137c-0.024,0.099,0.038,0.199,0.138,0.223c0.099,0.024,0.199-0.038,0.223-0.137l0,0  C94.059,40.116,93.998,40.016,93.897,39.992L93.897,39.992z M75.187,43.285c-0.055-0.09-0.172-0.118-0.261-0.063l0,0  c-0.083,0.047-0.112,0.153-0.065,0.236c0.003,0.007,0.008,0.014,0.014,0.02c0.051,0.087,0.161,0.117,0.249,0.067  C75.212,43.491,75.242,43.374,75.187,43.285L75.187,43.285L75.187,43.285z M84.771,42.227c-0.025-0.101-0.121-0.168-0.224-0.156  c-0.104,0.018-0.175,0.118-0.156,0.224c0.018,0.104,0.118,0.175,0.224,0.156C84.715,42.425,84.782,42.33,84.771,42.227z   M88.947,17.845c-0.024-0.195-0.199-0.335-0.394-0.315c-0.189,0.012-0.332,0.175-0.32,0.363c0.001,0.007,0,0.013,0.002,0.019  c0.024,0.195,0.199,0.335,0.394,0.315C88.821,18.21,88.964,18.039,88.947,17.845L88.947,17.845z M89.82,26.393  c-0.024-0.196-0.203-0.334-0.398-0.309c-0.192,0.024-0.33,0.197-0.311,0.389c0.017,0.194,0.188,0.336,0.382,0.318l0,0  C89.69,26.763,89.832,26.589,89.82,26.393z M90.687,34.955c-0.019-0.193-0.188-0.334-0.382-0.315c-0.004,0-0.008,0.001-0.012,0.002  c-0.189,0.012-0.332,0.175-0.32,0.363c0.001,0.007,0,0.013,0.002,0.019c0.027,0.196,0.2,0.338,0.398,0.327  C90.566,35.326,90.706,35.15,90.687,34.955z M106.485,23.339c-0.188-0.05-0.382,0.062-0.431,0.251  c-0.05,0.188,0.062,0.381,0.251,0.431c0.185,0.049,0.375-0.058,0.429-0.241C106.783,23.59,106.673,23.395,106.485,23.339  L106.485,23.339z M104.016,31.578c-0.188-0.05-0.382,0.062-0.431,0.251c-0.05,0.188,0.062,0.381,0.251,0.431  c0.185,0.049,0.375-0.058,0.429-0.241C104.315,31.831,104.204,31.634,104.016,31.578L104.016,31.578z M73.932,26.567  c-0.097-0.171-0.312-0.233-0.485-0.138c-0.17,0.089-0.234,0.3-0.144,0.47c0.001,0.001,0.001,0.002,0.002,0.003  c0.079,0.171,0.281,0.245,0.452,0.167c0.008-0.004,0.016-0.008,0.025-0.012C73.951,26.956,74.017,26.745,73.932,26.567z   M78.009,34.145c-0.099-0.17-0.311-0.235-0.488-0.151c-0.171,0.097-0.233,0.313-0.138,0.485c0.093,0.171,0.308,0.236,0.479,0.143  c0.002-0.001,0.005-0.002,0.006-0.003c0.17-0.089,0.234-0.3,0.145-0.469C78.01,34.147,78.01,34.146,78.009,34.145z M82.081,41.71  c-0.085-0.168-0.289-0.236-0.457-0.15c-0.005,0.002-0.01,0.005-0.014,0.008c-0.175,0.086-0.246,0.298-0.16,0.473  c0.003,0.006,0.005,0.01,0.008,0.016c0.095,0.173,0.312,0.236,0.484,0.142c0.173-0.095,0.236-0.312,0.142-0.484  C82.082,41.712,82.082,41.711,82.081,41.71z M114.497,25.974c-0.161-0.065-0.345,0.012-0.413,0.172  c-0.066,0.161,0.01,0.346,0.172,0.413c0.161,0.067,0.346-0.01,0.413-0.172l0,0C114.733,26.225,114.657,26.042,114.497,25.974z   M82.367,26.342c-0.075-0.162-0.263-0.236-0.428-0.17c-0.157,0.065-0.231,0.243-0.167,0.4c0.002,0.005,0.004,0.008,0.006,0.013  c0.064,0.162,0.248,0.242,0.41,0.176c0.002-0.001,0.003-0.002,0.006-0.003C82.35,26.687,82.427,26.506,82.367,26.342L82.367,26.342z   M85.331,33.408c-0.07-0.159-0.254-0.23-0.412-0.162c-0.157,0.065-0.231,0.243-0.167,0.4c0.002,0.005,0.004,0.008,0.006,0.013  c0.064,0.162,0.248,0.242,0.411,0.177c0.002-0.001,0.003-0.002,0.006-0.003C85.332,33.756,85.402,33.568,85.331,33.408  L85.331,33.408z M88.316,40.493c-0.064-0.162-0.248-0.242-0.411-0.177c-0.002,0.001-0.003,0.002-0.006,0.003  c-0.154,0.058-0.232,0.231-0.174,0.385c0.003,0.01,0.008,0.019,0.012,0.028c0.064,0.162,0.248,0.242,0.411,0.177  c0.002-0.001,0.003-0.002,0.006-0.003C88.308,40.833,88.38,40.651,88.316,40.493L88.316,40.493z M99.183,26.98  c-0.007-0.175-0.151-0.313-0.326-0.31c-0.174,0.001-0.313,0.141-0.313,0.314c0.004,0.175,0.143,0.318,0.317,0.326  C99.039,27.307,99.182,27.16,99.183,26.98L99.183,26.98z M99.218,34.66c0.005-0.168-0.127-0.309-0.295-0.314  c-0.006,0-0.012,0-0.019-0.001c-0.174,0.001-0.313,0.14-0.313,0.314c0.004,0.175,0.143,0.318,0.317,0.326  C99.083,34.98,99.221,34.836,99.218,34.66L99.218,34.66z M71.915,37.933c-0.116-0.119-0.305-0.122-0.425-0.008  c-0.005,0.005-0.01,0.009-0.013,0.013c-0.126,0.12-0.13,0.32-0.01,0.447c0.003,0.003,0.006,0.006,0.008,0.007  c0.129,0.117,0.327,0.113,0.451-0.011c0.122-0.121,0.121-0.319,0-0.441C71.922,37.94,71.918,37.937,71.915,37.933L71.915,37.933z   M77.378,43.333c-0.126-0.123-0.327-0.124-0.455-0.002c-0.121,0.129-0.116,0.333,0.014,0.454c0.123,0.116,0.315,0.116,0.439,0.001  c0.126-0.117,0.133-0.316,0.015-0.441C77.388,43.341,77.383,43.336,77.378,43.333L77.378,43.333z M113.259,17.918  c-0.012-0.202-0.178-0.36-0.382-0.359c-0.202,0.003-0.364,0.168-0.363,0.369c0.009,0.203,0.178,0.363,0.382,0.359  C113.098,18.284,113.26,18.119,113.259,17.918L113.259,17.918z M113.392,26.781c-0.002-0.202-0.168-0.364-0.369-0.363  c-0.201,0.001-0.364,0.168-0.363,0.369c0.002,0.202,0.168,0.364,0.369,0.363C113.232,27.148,113.393,26.982,113.392,26.781  L113.392,26.781z M78.907,32.482c-0.152-0.138-0.385-0.135-0.531,0.01c-0.137,0.151-0.126,0.386,0.027,0.523  c0.146,0.133,0.37,0.126,0.509-0.013C79.049,32.854,79.048,32.626,78.907,32.482L78.907,32.482z M85.27,38.649  c-0.147-0.137-0.375-0.135-0.519,0.005c-0.142,0.145-0.14,0.377,0.005,0.519c0.145,0.142,0.377,0.14,0.519-0.005  C85.414,39.022,85.411,38.791,85.27,38.649L85.27,38.649z M96.861,25.358c-0.089-0.18-0.301-0.263-0.489-0.192  c-0.182,0.087-0.261,0.302-0.179,0.485c0.075,0.184,0.285,0.273,0.47,0.198c0.002-0.001,0.005-0.002,0.007-0.003  C96.858,25.765,96.943,25.547,96.861,25.358C96.862,25.359,96.861,25.358,96.861,25.358L96.861,25.358z M100.383,33.5  c-0.082-0.188-0.3-0.273-0.487-0.192c0,0,0,0-0.001,0.001c-0.181,0.079-0.263,0.291-0.183,0.471l0,0  c0.08,0.185,0.293,0.271,0.477,0.192C100.372,33.895,100.458,33.684,100.383,33.5L100.383,33.5z M101.666,21.634  c-0.077-0.185-0.29-0.272-0.476-0.195c-0.186,0.077-0.272,0.29-0.195,0.476c0.076,0.18,0.28,0.269,0.463,0.2  C101.649,22.038,101.741,21.824,101.666,21.634L101.666,21.634z M104.834,29.875c-0.076-0.189-0.29-0.282-0.48-0.207  c-0.183,0.075-0.275,0.282-0.211,0.468c0.079,0.189,0.29,0.285,0.484,0.22C104.813,30.277,104.903,30.065,104.834,29.875  L104.834,29.875z M88.865,34.937c-0.143-0.144-0.376-0.147-0.523-0.007c-0.143,0.139-0.149,0.367-0.01,0.511  c0.13,0.148,0.355,0.163,0.503,0.034c0.004-0.003,0.008-0.007,0.011-0.011c0.151-0.135,0.163-0.367,0.027-0.517  C88.87,34.942,88.868,34.939,88.865,34.937L88.865,34.937z"/>
</g></g></g><!--ITEM 6--><g><defs><clipPath id="clip-path-id-viewbox-item-6"><rect x="0.0" y="0.0" width="261.0" height="300.0"/></clipPath></defs><g transform="translate(556.0 393.0) rotate(0.0 161.0 185.0) scale(1.2337164750957854 1.2333333333333334)"><g clip-path="url(#clip-path-id-viewbox-item-6)" transform="translate(-0.0 -0.0)"><linearGradient id="chair_leg_4_-i6" gradientUnits="userSpaceOnUse" x1="5940.48" y1="5543.8027" x2="6206.9595" y2="5543.8027" gradientTransform="matrix(0.0741 0 0 0.0741 -230.5491 -187.4563)">
	<stop offset="0.0898" style="stop-color:#EEEEEE"/>
	<stop offset="0.8178" style="stop-color:#D6D7D8"/>
</linearGradient>
<polygon id="chair_leg-i6" fill="url(#chair_leg_4_-i6)" points="229.301,300 223.376,300 209.555,146.856 215.412,146.856   215.461,146.679 "/>
<linearGradient id="chair_leg_5_-i6" gradientUnits="userSpaceOnUse" x1="5051.5137" y1="5543.8027" x2="5317.9932" y2="5543.8027" gradientTransform="matrix(0.0741 0 0 0.0741 -230.5491 -187.4563)">
	<stop offset="0.0898" style="stop-color:#EEEEEE"/>
	<stop offset="0.8178" style="stop-color:#D6D7D8"/>
</linearGradient>
<polygon id="chair_leg_3_-i6" fill="url(#chair_leg_5_-i6)" points="163.453,300 157.528,300 143.707,146.856 149.564,146.856   149.613,146.679 "/>
<linearGradient id="chair_leg_6_-i6" gradientUnits="userSpaceOnUse" x1="-3706.8953" y1="5543.8027" x2="-3440.4163" y2="5543.8027" gradientTransform="matrix(-0.0741 0 0 0.0741 -191.6355 -187.4563)">
	<stop offset="0.0898" style="stop-color:#EEEEEE"/>
	<stop offset="0.8178" style="stop-color:#D6D7D8"/>
</linearGradient>
<polygon id="chair_leg_1_-i6" fill="url(#chair_leg_6_-i6)" points="63.299,300 69.225,300 83.045,146.856 77.189,146.856 77.14,146.679   "/>
<linearGradient id="chair_leg_7_-i6" gradientUnits="userSpaceOnUse" x1="-2852.6531" y1="5543.8027" x2="-2586.1741" y2="5543.8027" gradientTransform="matrix(-0.0741 0 0 0.0741 -191.6355 -187.4563)">
	<stop offset="0.0898" style="stop-color:#EEEEEE"/>
	<stop offset="0.8178" style="stop-color:#D6D7D8"/>
</linearGradient>
<polygon id="chair_leg_2_-i6" fill="url(#chair_leg_7_-i6)" points="0,300 5.926,300 19.746,146.856 13.889,146.856 13.84,146.679 "/>
<linearGradient id="chair_bottom_2_-i6" gradientUnits="userSpaceOnUse" x1="6178.0552" y1="4598.79" x2="4542.5015" y2="4318.9414" gradientTransform="matrix(0.0741 0 0 0.0741 -230.5491 -187.4563)">
	<stop offset="0.0898" style="stop-color:#EEEEEE"/>
	<stop offset="0.8178" style="stop-color:#D6D7D8"/>
</linearGradient>
<polygon id="chair_bottom-i6" fill="url(#chair_bottom_2_-i6)" points="77.138,146.84 215.415,146.859 219.657,132.806 77.138,132.806 "/>
<linearGradient id="chair_back_1_-i6" gradientUnits="userSpaceOnUse" x1="6188.6851" y1="3566.5969" x2="4823.146" y2="3038.5884" gradientTransform="matrix(0.0741 0 0 0.0741 -230.5491 -187.4563)">
	<stop offset="0.0898" style="stop-color:#EEEEEE"/>
	<stop offset="0.8178" style="stop-color:#D6D7D8"/>
</linearGradient>
<polygon id="chair_back-i6" fill="url(#chair_back_1_-i6)" points="219.657,132.806 141.14,132.806 182.483,0 261,0 "/>
<linearGradient id="chair_bottom_3_-i6" gradientUnits="userSpaceOnUse" x1="-16981.1074" y1="4237.6177" x2="-13549.1904" y2="4694.1035" gradientTransform="matrix(-0.0162 0 0 0.0741 -207.8584 -187.4563)">
	<stop offset="0.0898" style="stop-color:#EEEEEE"/>
	<stop offset="0.8178" style="stop-color:#D6D7D8"/>
</linearGradient>
<polygon id="chair_bottom_1_-i6" fill="url(#chair_bottom_3_-i6)" points="77.138,146.84 13.779,146.968 13.779,132.761 77.138,132.806   "/>
</g></g></g></svg>